HIERARCHY
ROOT Hips
{
	OFFSET 0.000000 0.000000 0.000000
	CHANNELS 6 Xposition Yposition Zposition Zrotation Yrotation Xrotation 
	JOINT LHipJoint
	{
		OFFSET 0.000000 0.000000 0.000000
		CHANNELS 3 Zrotation Yrotation Xrotation
		JOINT LeftUpLeg
		{
			OFFSET 1.363060 -1.794630 0.839290
			CHANNELS 3 Zrotation Yrotation Xrotation
			JOINT LeftLeg
			{
				OFFSET 2.448110 -6.726130 0.000000
				CHANNELS 3 Zrotation Yrotation Xrotation
				JOINT LeftFoot
				{
					OFFSET 2.562200 -7.039590 0.000000
					CHANNELS 3 Zrotation Yrotation Xrotation
					JOINT LeftToeBase
					{
						OFFSET 0.157640 -0.433110 2.322550
						CHANNELS 3 Zrotation Yrotation Xrotation
						End Site
						{
							OFFSET 0.000000 0.000000 0.000000
						}
					}
				}
			}
		}
	}
	JOINT RHipJoint
	{
		OFFSET 0.000000 0.000000 0.000000
		CHANNELS 3 Zrotation Yrotation Xrotation
		JOINT RightUpLeg
		{
			OFFSET -1.305520 -1.794630 0.839290
			CHANNELS 3 Zrotation Yrotation Xrotation
			JOINT RightLeg
			{
				OFFSET -2.542530 -6.985550 0.000000
				CHANNELS 3 Zrotation Yrotation Xrotation
				JOINT RightFoot
				{
					OFFSET -2.568260 -7.056230 0.000000
					CHANNELS 3 Zrotation Yrotation Xrotation
					JOINT RightToeBase
					{
						OFFSET -0.164730 -0.452590 2.363150
						CHANNELS 3 Zrotation Yrotation Xrotation
						End Site
						{
							OFFSET 0.000000 0.000000 0.000000
						}
					}
				}
			}
		}
	}
	JOINT LowerBack
	{
		OFFSET 0.000000 0.000000 0.000000
		CHANNELS 3 Zrotation Yrotation Xrotation
		JOINT Spine
		{
			OFFSET 0.028270 2.035590 -0.193380
			CHANNELS 3 Zrotation Yrotation Xrotation
			JOINT Spine1
			{
				OFFSET 0.056720 2.048850 -0.042750
				CHANNELS 3 Zrotation Yrotation Xrotation
				JOINT Neck
				{
					OFFSET 0.000000 0.000000 0.000000
					CHANNELS 3 Zrotation Yrotation Xrotation
					JOINT Neck1
					{
						OFFSET -0.054170 1.746240 0.172020
						CHANNELS 3 Zrotation Yrotation Xrotation
						JOINT Head
						{
							OFFSET 0.104070 1.761360 -0.123970
							CHANNELS 3 Zrotation Yrotation Xrotation
							End Site
							{
								OFFSET 0.000000 0.000000 0.000000
							}
						}
					}
				}
				JOINT LeftShoulder
				{
					OFFSET 0.000000 0.000000 0.000000
					CHANNELS 3 Zrotation Yrotation Xrotation
					JOINT LeftArm
					{
						OFFSET 3.362410 1.200890 -0.311210
						CHANNELS 3 Zrotation Yrotation Xrotation
						JOINT LeftForeArm
						{
							OFFSET 4.983000 -0.000000 -0.000000
							CHANNELS 3 Zrotation Yrotation Xrotation
							JOINT LeftHand
							{
								OFFSET 3.483560 -0.000000 -0.000000
								CHANNELS 3 Zrotation Yrotation Xrotation
								JOINT LeftFingerBase
								{
									OFFSET 0.000000 0.000000 0.000000
									CHANNELS 3 Zrotation Yrotation Xrotation
									JOINT LeftHandIndex1
									{
										OFFSET 0.715260 -0.000000 -0.000000
										CHANNELS 3 Zrotation Yrotation Xrotation
										End Site
										{
											OFFSET 0.000000 0.000000 0.000000
										}
									}
								}
								JOINT LThumb
								{
									OFFSET 0.000000 0.000000 0.000000
									CHANNELS 3 Zrotation Yrotation Xrotation
									End Site
									{
										OFFSET 0.000000 0.000000 0.000000
									}
								}
							}
						}
					}
				}
				JOINT RightShoulder
				{
					OFFSET 0.000000 0.000000 0.000000
					CHANNELS 3 Zrotation Yrotation Xrotation
					JOINT RightArm
					{
						OFFSET -3.136600 1.374050 -0.404650
						CHANNELS 3 Zrotation Yrotation Xrotation
						JOINT RightForeArm
						{
							OFFSET -5.241900 -0.000000 -0.000000
							CHANNELS 3 Zrotation Yrotation Xrotation
							JOINT RightHand
							{
								OFFSET -3.444170 -0.000000 -0.000000
								CHANNELS 3 Zrotation Yrotation Xrotation
								JOINT RightFingerBase
								{
									OFFSET 0.000000 0.000000 0.000000
									CHANNELS 3 Zrotation Yrotation Xrotation
									JOINT RightHandIndex1
									{
										OFFSET -0.622530 -0.000000 -0.000000
										CHANNELS 3 Zrotation Yrotation Xrotation
										End Site
										{
											OFFSET 0.000000 0.000000 0.000000
										}
									}
								}
								JOINT RThumb
								{
									OFFSET 0.000000 0.000000 0.000000
									CHANNELS 3 Zrotation Yrotation Xrotation
									End Site
									{
										OFFSET 0.000000 0.000000 0.000000
									}
								}
							}
						}
					}
				}
			}
		}
	}
}
MOTION
Frames: 8
Frame Time: 0.033333
0.240016 17.840790 2.966651 1.243869 0.570100 17.689860 -15.604344 -1.378563 5.553545 -3.152297 4.340829 -27.536792 -1.983849 -2.968274 47.126294 4.937876 26.376918 68.196940 -0.912281 -0.226692 -54.020216 10.842452 8.807050 -2.793034 8.258148 -8.063666 -44.516651 4.111233 2.972649 20.497878 3.496479 -16.043592 21.618497 0.257731 -0.153571 -25.863546 0.912789 5.570603 10.107833 0.817037 -3.257851 -1.582935 -7.894919 -2.900707 -0.124825 9.610308 1.317697 1.155321 -4.421071 -0.411636 1.900902 -0.115947 0.128765 -0.004234 -10.092120 -8.205932 2.999558 -61.331040 -14.194260 38.896387 2.867624 -39.558977 -3.379434 3.207448 -1.880541 0.023588 -0.043413 0.172596 -0.063168 -0.133521 -0.055698 -0.094593 -0.023112 0.057928 -0.004271 21.086181 2.095310 -0.588315 55.748253 4.402822 -8.472391 3.617852 12.552410 0.528257 0.356876 3.937527 0.055675 0.155784 0.114720 0.009555 0.170458 0.054627 -0.146864 0.052431 0.015782 0.014319 
0.121717 17.941563 3.640708 0.042770 2.379785 18.037772 -14.799685 -0.270045 4.885887 -3.169286 3.446877 -30.869505 2.868939 -0.207292 49.003924 4.239492 29.001647 63.513827 -0.549288 -0.133910 -53.206841 10.894572 8.376124 -1.702374 9.155548 -6.128102 -44.582654 2.746147 0.911533 22.461440 3.341619 -15.767154 18.613776 0.394005 -0.196411 -25.393143 2.665329 5.696247 9.018797 1.243431 -3.629486 -1.100583 -7.968890 -2.904600 0.440139 9.953712 1.647150 -0.106672 -4.406346 -0.413846 1.637328 -0.110644 0.138179 -0.005870 -9.590300 -7.702660 3.682827 -64.079920 -16.775381 37.729721 1.980566 -37.943064 -2.572746 3.442227 -1.549445 0.010441 -0.068505 0.169778 -0.068414 -0.129879 -0.057455 -0.096071 -0.031651 0.066298 -0.006833 21.479288 2.463542 -1.244746 56.907460 4.492437 -8.579982 3.539289 10.139732 0.420932 -0.065186 3.807053 0.029051 0.139146 0.123348 0.013532 0.161900 0.058823 -0.145659 0.058439 0.015072 0.003762 
-0.005553 18.049276 4.253633 0.494277 3.118567 18.619885 -14.880650 0.582166 4.750473 -2.673840 2.464457 -33.339135 3.235511 1.420271 50.613380 1.332408 26.187878 51.353285 -0.048619 -0.017847 -51.342531 10.677607 7.325793 -1.000418 8.781570 -3.974436 -43.289532 1.837151 -0.433693 22.280830 2.868000 -15.207745 16.598803 0.335953 -0.202449 -26.085771 3.469951 5.947432 7.959216 1.160340 -3.890337 -1.466550 -7.673384 -2.692892 0.870549 9.844228 1.681997 -1.224328 -4.406491 -0.408801 1.369162 -0.100434 0.144128 -0.008531 -8.542109 -6.408475 4.370534 -66.678155 -20.044894 36.302115 1.306870 -37.844026 -2.237585 3.885364 -1.102388 0.008872 -0.076187 0.192691 -0.066651 -0.123767 -0.060644 -0.089582 -0.046071 0.074653 -0.015218 21.416183 2.317510 -0.772673 58.244381 5.603072 -8.560401 3.694117 9.181877 0.387691 -0.544286 3.738407 -0.004809 0.176426 0.084548 0.012978 0.144863 0.063431 -0.144015 0.065684 0.012812 -0.005543 
-0.130647 18.172302 4.822272 0.598658 3.179688 19.884871 -14.337260 1.600048 4.808346 -2.025338 0.927788 -35.838401 1.359963 2.706080 51.533196 -0.046635 18.282751 31.433929 0.520305 0.084268 -49.742584 11.317573 6.397735 -0.709245 8.209053 -1.638824 -40.710070 0.664589 -1.177412 19.015181 1.973653 -14.036296 15.595125 0.287306 -0.210038 -27.376685 3.855731 6.640928 5.764208 1.394333 -3.856005 -0.636064 -6.973152 -2.328065 0.987188 9.368084 1.513681 -2.529560 -4.336309 -0.407755 1.166928 -0.091735 0.145960 -0.006066 -7.354075 -5.807878 4.736394 -68.809218 -23.882614 34.144222 -0.196213 -38.562160 -1.036196 4.218628 -0.727777 0.005750 -0.105692 0.225709 -0.067262 -0.119236 -0.063058 -0.081761 -0.054200 0.082245 -0.022931 20.281899 2.355624 -1.302693 59.426405 6.379210 -7.486882 3.667769 9.513382 0.378397 -0.753767 3.971839 -0.014683 0.147219 0.093858 0.011368 0.130388 0.061481 -0.139542 0.076804 0.016250 -0.015583 
-0.260400 18.299044 5.366070 2.477094 2.451574 20.720889 -14.265318 2.041565 5.069584 -2.550282 -0.094612 -35.684271 -2.638875 0.461076 49.348967 1.128037 9.963084 12.630034 1.084901 0.186705 -47.802011 11.648988 4.486787 -0.721132 6.677259 -0.746592 -36.572138 0.939398 -0.300866 13.726739 0.895540 -12.426055 15.544787 0.030268 -0.176324 -29.208044 2.850624 7.224349 3.813033 0.770055 -3.850325 -0.857539 -6.099553 -1.696523 1.279384 9.019622 1.170297 -3.266720 -4.111973 -0.403834 1.031607 -0.081937 0.142180 -0.004372 -5.909167 -4.416391 5.005341 -70.119504 -27.876070 31.375829 -1.846268 -40.139622 -0.127269 4.601035 -0.497682 0.013328 -0.080297 0.218328 -0.062575 -0.121948 -0.060364 -0.067427 -0.060061 0.082103 -0.032189 18.859721 0.961327 -0.381472 60.149997 8.520878 -6.611892 3.649230 11.917412 0.350612 -0.812865 4.287682 -0.025763 0.136971 0.049587 0.005931 0.113448 0.064358 -0.136415 0.084218 0.018168 -0.019124 
-0.392406 18.406830 5.900745 4.164712 1.059732 21.859509 -14.222528 2.601374 4.197729 -2.897571 -0.625229 -33.566119 -5.334301 -1.632267 44.819496 1.777183 7.558417 6.895025 1.538851 0.238595 -46.300918 12.209788 2.821475 -0.502847 5.006475 0.389303 -32.226961 0.949140 0.640485 6.568782 -0.090419 -10.706492 16.813848 -0.257097 -0.151884 -31.079021 1.336614 7.179002 1.148927 0.451588 -3.389714 -0.711098 -5.027037 -0.837005 1.669528 8.317598 0.743636 -3.878099 -4.012934 -0.396172 1.020132 -0.071870 0.135359 -0.000199 -4.989976 -3.471647 5.432032 -70.427523 -31.295349 27.413085 -4.019457 -42.305939 1.119409 4.900027 -0.370692 0.011892 -0.110006 0.229304 -0.057610 -0.126502 -0.060717 -0.053700 -0.065392 0.080482 -0.041270 16.566388 -0.645768 0.588787 60.716884 11.319766 -5.183099 3.603502 15.035231 0.655356 -0.737002 4.937162 -0.023264 0.133609 0.066397 -0.002439 0.095077 0.064705 -0.130233 0.094262 0.025823 -0.020366 
-0.509270 18.481703 6.435985 5.302218 0.304809 21.877095 -13.931902 2.468289 3.188823 -4.375074 0.027791 -30.911131 -5.644019 -3.688393 41.064976 1.586107 7.669444 8.989553 1.865163 0.266722 -44.108756 13.115254 1.084490 0.139948 2.964594 0.434250 -27.723696 2.377026 2.144429 0.050923 -0.798320 -9.980660 18.452826 -0.600280 -0.106883 -32.245760 0.515493 7.719635 -1.230128 -0.183676 -2.814013 -0.282159 -4.411306 -0.692204 2.067446 8.150403 0.437057 -4.210632 -3.593878 -0.386368 0.967436 -0.062600 0.124265 0.004940 -4.258338 -2.507829 5.569477 -69.030231 -33.156266 22.088289 -5.529237 -43.372038 2.094391 5.396218 -0.390242 0.018547 -0.078661 0.193458 -0.050970 -0.134552 -0.052760 -0.030113 -0.061936 0.074221 -0.049167 15.196086 -3.378765 1.953677 60.224785 16.132474 -3.526218 3.025312 19.434881 0.639746 -0.769900 5.520833 -0.028405 0.081898 -0.002161 -0.008415 0.075612 0.065883 -0.122284 0.098487 0.028809 -0.014742 
-0.599427 18.516403 6.975822 6.866451 -1.227386 21.454981 -13.880590 2.624363 1.944534 -5.591949 -0.122712 -28.635958 -5.594585 -3.446841 37.575128 1.369032 7.483411 10.302521 2.044396 0.221896 -42.122055 13.024924 -0.217173 0.720527 1.217913 1.638287 -24.199799 2.589964 2.407692 -3.369426 -1.248375 -9.137421 18.792611 -0.949779 -0.056182 -32.709856 -0.910402 7.391030 -2.474529 -0.417349 -2.325576 -0.589148 -3.883605 0.203857 2.660789 7.913442 0.230937 -4.565744 -3.320429 -0.366306 1.003739 -0.051785 0.113896 0.008736 -3.772917 -1.711610 5.871705 -67.329898 -34.331166 16.108856 -6.611324 -44.542705 2.566771 6.005639 -0.468676 0.017582 -0.051679 0.179248 -0.041514 -0.141640 -0.048320 -0.009420 -0.058805 0.065632 -0.059256 13.458962 -6.832099 3.315541 59.818679 22.062167 -2.042535 2.746121 24.745808 0.922587 -0.850422 6.270894 -0.036154 0.094580 -0.026189 -0.020354 0.054847 0.067868 -0.115152 0.103341 0.034680 -0.009201 
